<svg id="Capa_1" enable-background="new 0 0 512 512" height="512" viewBox="0 0 512 512" width="512" xmlns="http://www.w3.org/2000/svg"><circle cx="256" cy="256" fill="#2864f0" r="256"/><path d="m264.612 511.84c133.147-4.403 240.555-110.467 247.07-243.07l-96.745-96.745-64.299-3.112-79.638-79.638-14.791 107.785-41.751-41.751-117.708-5.059 2.853 117.083 68.06 68.06-62.394 17.105z" fill="#27488f"/><path d="m374.745 229.902v-55.483l19.067 18.909 21.125-21.302-55.193-54.735-55.191 54.735 21.125 21.301 19.067-18.91v55.485c-36.995 7.044-65.056 39.611-65.056 78.626 0 44.143 35.913 80.056 80.056 80.056s80.056-35.913 80.056-80.056c0-39.016-28.061-71.582-65.056-78.626zm-15 128.681c-27.601 0-50.056-22.455-50.056-50.056s22.455-50.056 50.056-50.056 50.056 22.455 50.056 50.056-22.455 50.056-50.056 50.056z" fill="#a3d4ff"/><path d="m374.745 229.902v-55.483l19.067 18.909 21.125-21.302-55.193-54.735-.077 141.183c.026 0 .052-.002.078-.002 27.601 0 50.056 22.455 50.056 50.056s-22.455 50.056-50.056 50.056c-.026 0-.052-.002-.078-.002v30c.026 0 .052.002.078.002 44.143 0 80.056-35.913 80.056-80.056 0-39.016-28.061-71.582-65.056-78.626z" fill="#65b1fc"/><path d="m231.233 204.542c0-44.562-36.254-80.816-80.815-80.816s-80.815 36.254-80.815 80.816c0 39.435 28.399 72.343 65.815 79.397v38.557h-30.149v30h30.149v29.776h30v-29.776h30.149v-30h-30.149v-38.556c37.416-7.055 65.815-39.962 65.815-79.398zm-131.63 0c0-28.02 22.796-50.816 50.815-50.816s50.815 22.796 50.815 50.816-22.796 50.815-50.815 50.815-50.815-22.795-50.815-50.815z" fill="#ffce00"/><path d="m231.233 204.542c0-44.562-36.254-80.816-80.815-80.816-.06 0-.12.004-.18.005v30c.06 0 .12-.005.18-.005 28.02 0 50.815 22.796 50.815 50.816s-22.796 50.815-50.815 50.815c-.06 0-.12-.004-.18-.005v126.92h15.18v-29.776h30.149v-30h-30.149v-38.556c37.416-7.055 65.815-39.962 65.815-79.398z" fill="#fdba12"/><path d="m241 89.275h30v340.792h-30z" fill="#fff"/><path d="m255.595 89.275h15.405v340.792h-15.405z" fill="#dce1eb"/></svg>